# xmcd CD database file
#
# Track frame offsets:
#	150
#	14925
#	33115
#	48062
#
# Disc length: 770 seconds
#
# Revision: 0
# Processed by: cddbd v1.5.1PL0 Copyright (c) Steve Scherf et al.
# Submitted via: CDex 1.51
#
DISCID=28030004
DTITLE=芥川慈郎 - Against Wind
DYEAR=2003
DGENRE=Anime
TTITLE0=Against Wind
TTITLE1=Against Wind (Remix Version)
TTITLE2=Against Wind (Original Karaoke)
TTITLE3=VOICE MESSAGE
EXTD=YEAR: 2003
EXTT0=
EXTT1=
EXTT2=
EXTT3=
PLAYORDER=
